0
SECTION
2
HEADER
9
$INSUNITS
70
4
9
$ACADVER
1
AC1014
9
$HANDSEED
5
FFFF
0
ENDSEC
0
SECTION
2
TABLES
0
TABLE
2
VPORT
5
8
100
AcDbSymbolTable
0
ENDTAB
0
TABLE
2
LTYPE
5
5
100
AcDbSymbolTable
0
LTYPE
5
14
100
AcDbSymbolTableRecord
100
AcDbLinetypeTableRecord
2
BYBLOCK
70
0
0
LTYPE
5
15
100
AcDbSymbolTableRecord
100
AcDbLinetypeTableRecord
2
BYLAYER
70
0
0
ENDTAB
0
TABLE
2
LAYER
5
2
100
AcDbSymbolTable
70
2
0
LAYER
5
50
100
AcDbSymbolTableRecord
100
AcDbLayerTableRecord
2
0
70
0
6
CONTINUOUS
0
ENDTAB
0
TABLE
2
STYLE
5
3
100
AcDbSymbolTable
70
1
0
STYLE
5
11
100
AcDbSymbolTableRecord
100
AcDbTextStyleTableRecord
2
STANDARD
70
0
0
ENDTAB
0
TABLE
2
VIEW
5
6
100
AcDbSymbolTable
70
0
0
ENDTAB
0
TABLE
2
UCS
5
7
100
AcDbSymbolTable
70
0
0
ENDTAB
0
TABLE
2
APPID
5
9
100
AcDbSymbolTable
70
2
0
APPID
5
12
100
AcDbSymbolTableRecord
100
AcDbRegAppTableRecord
2
ACAD
70
0
0
ENDTAB
0
TABLE
2
DIMSTYLE
5
A
100
AcDbSymbolTable
70
1
0
ENDTAB
0
TABLE
2
BLOCK_RECORD
5
1
100
AcDbSymbolTable
70
1
0
BLOCK_RECORD
5
1F
100
AcDbSymbolTableRecord
100
AcDbBlockTableRecord
2
*MODEL_SPACE
0
BLOCK_RECORD
5
1B
100
AcDbSymbolTableRecord
100
AcDbBlockTableRecord
2
*PAPER_SPACE
0
ENDTAB
0
ENDSEC
0
SECTION
2
BLOCKS
0
BLOCK
5
20
100
AcDbEntity
100
AcDbBlockBegin
2
*MODEL_SPACE
0
ENDBLK
5
21
100
AcDbEntity
100
AcDbBlockEnd
0
BLOCK
5
1C
100
AcDbEntity
100
AcDbBlockBegin
2
*PAPER_SPACE
0
ENDBLK
5
1D
100
AcDbEntity
100
AcDbBlockEnd
0
ENDSEC
0
SECTION
2
ENTITIES
0
LWPOLYLINE
5
100
100
AcDbEntity
8
0
100
AcDbPolyline
90
4
70
1
43
0.0
10
-90
20
60
10
210
20
60
10
210
20
-165
10
-90
20
-165
0
LWPOLYLINE
5
101
100
AcDbEntity
8
0
100
AcDbPolyline
90
4
70
1
43
0.0
10
-79.306132148205677
20
22.962431523600003
10
-60
20
0
10
-40.648292353860441
20
22.924035665177801
10
-60
20
58.000000000000007
0
LINE
5
102
100
AcDbEntity
8
0
100
AcDbLine
10
-60
20
0
30
0
11
-60
21
58.000000000000007
31
0
0
LWPOLYLINE
5
103
100
AcDbEntity
8
0
100
AcDbPolyline
90
4
70
1
43
0.0
10
-33.36473483713295
20
22.924035665177804
10
-14.013027190993395
20
58.000000000000007
10
5.2931049572122824
20
22.962431523600006
10
-14.013027190993395
20
0
0
LINE
5
104
100
AcDbEntity
8
0
100
AcDbLine
10
-14.013027190993395
20
0
30
0
11
-14.013027190993395
21
58.000000000000007
31
0
0
LWPOLYLINE
5
105
100
AcDbEntity
8
0
100
AcDbPolyline
90
3
70
1
43
0.0
10
33.25540192147276
20
0
10
52.607109567612312
20
22.924035665177804
10
33.25540192147276
20
58.000000000000007
0
LINE
5
106
100
AcDbEntity
8
0
100
AcDbLine
10
13.949269773267083
20
22.962431523600006
30
0
11
33.25540192147276
21
0
31
0
0
LINE
5
107
100
AcDbEntity
8
0
100
AcDbLine
10
13.949269773267083
20
22.962431523600006
30
0
11
33.25540192147276
21
58.000000000000007
31
0
0
LWPOLYLINE
5
108
100
AcDbEntity
8
0
100
AcDbPolyline
90
4
70
1
43
0.0
10
63.601386713680398
20
22.924035665177804
10
82.953094359819943
20
58.000000000000007
10
102.25922650802562
20
22.962431523600006
10
82.953094359819943
20
0
0
LINE
5
109
100
AcDbEntity
8
0
100
AcDbLine
10
82.953094359819943
20
0
30
0
11
82.953094359819943
21
58.000000000000007
31
0
0
LWPOLYLINE
5
110
100
AcDbEntity
8
0
100
AcDbPolyline
90
3
70
1
43
0.0
10
109.74077665102055
20
22.962431523600006
10
129.04690879922623
20
58.000000000000007
10
129.04690879922623
20
0
0
LINE
5
111
100
AcDbEntity
8
0
100
AcDbLine
10
129.04690879922623
20
0
30
0
11
148.39861644536578
21
22.924035665177804
31
0
0
LINE
5
112
100
AcDbEntity
8
0
100
AcDbLine
10
148.39861644536578
20
22.924035665177804
30
0
11
129.04690879922623
21
58.000000000000007
31
0
0
LWPOLYLINE
5
113
100
AcDbEntity
8
0
100
AcDbPolyline
90
3
70
1
43
0.0
10
-74.000001102685928
20
23.000000342726707
10
-64.000000953674316
20
11.000000163912773
10
-64.000000953674316
20
42.00000062584877
0
LWPOLYLINE
5
114
100
AcDbEntity
8
0
100
AcDbPolyline
90
3
70
1
43
0.0
10
-45.999998897314072
20
23.000000342726707
10
-55.999999046325684
20
11.000000163912773
10
-55.999999046325684
20
42.00000062584877
0
LWPOLYLINE
5
115
100
AcDbEntity
8
0
100
AcDbPolyline
90
3
70
1
43
0.0
10
-18.018997815641463
20
42.00000062584877
10
-28.018997964653074
20
23.000000342726707
10
-18.018997815641463
20
11.000000163912773
0
LWPOLYLINE
5
116
100
AcDbEntity
8
0
100
AcDbPolyline
90
3
70
1
43
0.0
10
-10.007056566345325
20
42.00000062584877
10
-0.0070564173337128722
20
23.000000342726707
10
-10.007056566345325
20
11.000000163912773
0
LWPOLYLINE
5
117
100
AcDbEntity
8
0
100
AcDbPolyline
90
3
70
1
43
0.0
10
36.897749218566247
20
11.125750313470101
10
36.897749218566247
20
42.125750775405919
10
46.897749367577795
20
23.125750492283967
0
LWPOLYLINE
5
118
100
AcDbEntity
8
0
100
AcDbPolyline
90
3
70
1
43
0.0
10
29.613054624379274
20
11.125750313470101
10
29.613054624379274
20
42.125750775405919
10
19.613054475367726
20
23.125750492283967
0
LWPOLYLINE
5
119
100
AcDbEntity
8
0
100
AcDbPolyline
90
3
70
1
43
0.0
10
78.830146356062201
20
41.97948898719865
10
68.830146207050703
20
22.979488704076783
10
78.830146356062201
20
10.979488525262971
0
LWPOLYLINE
5
120
100
AcDbEntity
8
0
100
AcDbPolyline
90
3
70
1
43
0.0
10
87.076042363577699
20
41.97948898719865
10
97.076042512589211
20
22.979488704076783
10
87.076042363577699
20
10.979488525262971
0
LWPOLYLINE
5
121
100
AcDbEntity
8
0
100
AcDbPolyline
90
3
70
1
43
0.0
10
125.03622478538784
20
41.979488987198444
10
115.03622463637639
20
22.979488704076676
10
125.03622478538784
20
10.979488525262921
0
LWPOLYLINE
5
122
100
AcDbEntity
8
0
100
AcDbPolyline
90
3
70
1
43
0.0
10
133.05759281306462
20
41.979488987198444
10
143.05759296207606
20
22.979488704076676
10
133.05759281306462
20
10.979488525262921
0
LWPOLYLINE
5
123
100
AcDbEntity
8
0
100
AcDbPolyline
90
3
70
1
43
0.0
10
38.415400994436382
20
-13.882751488883603
10
57.721533142642031
20
-48.920319965283539
10
57.721533142642024
20
9.0796800347163735
0
LWPOLYLINE
5
124
100
AcDbEntity
8
0
100
AcDbPolyline
90
4
70
1
43
0.0
10
126.72535772919477
20
-13.882751488883589
10
107.41922558098912
20
9.0796800347163789
10
88.067517934849633
20
-13.844355630461392
10
107.41922558098913
20
-48.920319965283539
0
LWPOLYLINE
5
125
100
AcDbEntity
8
0
100
AcDbPolyline
90
3
70
1
43
0.0
10
149.50235600655697
20
-32.899808952481997
10
139.50235585754552
20
-13.899808669360254
10
149.50235600655697
20
-1.8998084905465151
0
LWPOLYLINE
5
126
100
AcDbEntity
8
0
100
AcDbPolyline
90
3
70
1
43
0.0
10
103.29627757723142
20
-1.8998084905465773
10
103.29627757723142
20
-32.899808952482211
10
93.296277428219923
20
-13.89980866936037
0
LWPOLYLINE
5
127
100
AcDbEntity
8
0
100
AcDbPolyline
90
3
70
1
43
0.0
10
71.363880588747065
20
-14.046070457567559
10
61.36388043973551
20
-2.0460702787537088
10
61.363880439735524
20
-33.04607074068948
0
LINE
5
128
100
AcDbEntity
8
0
100
AcDbLine
10
107.41922558098912
20
9.0796800347163789
30
0
11
107.41922558098913
21
-48.920319965283539
31
0
0
LWPOLYLINE
5
129
100
AcDbEntity
8
0
100
AcDbPolyline
90
3
70
1
43
0.0
10
-16.182161132691061
20
-13.844355630461401
10
-35.533868778830588
20
-48.920319965283561
10
-35.533868778830595
20
9.0796800347163611
0
LWPOLYLINE
5
130
100
AcDbEntity
8
0
100
AcDbPolyline
90
3
70
1
43
0.0
10
54.079185845548551
20
-2.0460702787537088
10
54.079185845548551
20
-33.046070740689487
10
44.07918569653701
20
-14.046070457567559
0
LWPOLYLINE
5
131
100
AcDbEntity
8
0
100
AcDbPolyline
90
3
70
1
43
0.0
10
-49.533869881516495
20
-13.920320308010313
10
-39.533869732504911
20
-1.9203201291963956
10
-39.533869732504904
20
-32.920320591132352
0
LWPOLYLINE
5
132
100
AcDbEntity
8
0
100
AcDbPolyline
90
3
70
1
43
0.0
10
-3.552866743483718
20
-13.920320308010307
10
6.4471334055278788
20
-1.9203201291963912
10
6.4471334055278824
20
-32.920320591132338
0
LWPOLYLINE
5
133
100
AcDbEntity
8
0
100
AcDbPolyline
90
3
70
1
43
0.0
10
10.453104030175941
20
9.0796800347163664
10
10.453104030175949
20
-48.920319965283554
10
-8.8986036159635837
20
-13.844355630461402
0
LWPOLYLINE
5
134
100
AcDbEntity
8
0
100
AcDbPolyline
90
3
70
1
43
0.0
10
-31.533867825156289
20
-1.9203201291963956
10
-31.533867825156282
20
-32.920320591132352
10
-21.533867676144688
20
-13.920320308010307
0
LWPOLYLINE
5
135
100
AcDbEntity
8
0
100
AcDbPolyline
90
3
70
1
43
0.0
10
121.5421737337584
20
-13.899808669360365
10
111.54217358474688
20
-1.8998084905465729
10
111.54217358474688
20
-32.899808952482211
0
LWPOLYLINE
5
136
100
AcDbEntity
8
0
100
AcDbPolyline
90
3
70
1
43
0.0
10
134.20690787218967
20
-13.882751488883589
10
153.51304002039535
20
9.079680034716386
10
153.51304002039535
20
-48.920319965283532
0
LINE
5
137
100
AcDbEntity
8
0
100
AcDbLine
10
172.86474766653487
20
-13.844355630461378
30
0
11
153.51304002039535
21
-48.920319965283532
31
0
0
LWPOLYLINE
5
138
100
AcDbEntity
8
0
100
AcDbPolyline
90
3
70
1
43
0.0
10
167.52372418324515
20
-13.899808669360254
10
157.52372403423371
20
-1.8998084905465151
10
157.52372403423371
20
-32.899808952481997
0
LINE
5
139
100
AcDbEntity
8
0
100
AcDbLine
10
77.073240788781561
20
-13.844355630461392
30
0
11
57.721533142642031
21
-48.920319965283539
31
0
0
LINE
5
140
100
AcDbEntity
8
0
100
AcDbLine
10
57.721533142642024
20
9.0796800347163735
30
0
11
77.073240788781561
21
-13.844355630461392
31
0
0
LINE
5
141
100
AcDbEntity
8
0
100
AcDbLine
10
153.51304002039535
20
9.079680034716386
30
0
11
172.86474766653487
21
-13.844355630461378
31
0
0
LWPOLYLINE
5
142
100
AcDbEntity
8
0
100
AcDbPolyline
90
3
70
1
43
0.0
10
24.459074803835612
20
-13.920320308010304
10
14.459074654824008
20
-1.9203201291963867
10
14.459074654824011
20
-32.920320591132338
0
LINE
5
143
100
AcDbEntity
8
0
100
AcDbLine
10
29.759236178381592
20
-13.882751488883603
30
0
11
10.453104030175949
21
-48.920319965283554
31
0
0
LINE
5
144
100
AcDbEntity
8
0
100
AcDbLine
10
-54.840000927036243
20
-13.882751488883606
30
0
11
-35.533868778830588
21
-48.920319965283561
31
0
0
LINE
5
145
100
AcDbEntity
8
0
100
AcDbLine
10
-54.840000927036243
20
-13.882751488883606
30
0
11
-35.533868778830595
21
9.0796800347163611
31
0
0
LINE
5
146
100
AcDbEntity
8
0
100
AcDbLine
10
29.759236178381592
20
-13.882751488883603
30
0
11
10.453104030175941
21
9.0796800347163664
31
0
0
ENDSEC
0
SECTION
2
OBJECTS
0
DICTIONARY
5
C
100
AcDbDictionary
3
ACAD_GROUP
350
D
3
ACAD_MLINESTYLE
350
17
0
DICTIONARY
5
D
100
AcDbDictionary
0
DICTIONARY
5
1A
330
C
100
AcDbDictionary
0
DICTIONARY
5
17
100
AcDbDictionary
0
ENDSEC
0
EOF
