0
SECTION
2
HEADER
9
$INSUNITS
70
4
9
$ACADVER
1
AC1014
9
$HANDSEED
5
FFFF
0
ENDSEC
0
SECTION
2
TABLES
0
TABLE
2
VPORT
5
8
100
AcDbSymbolTable
0
ENDTAB
0
TABLE
2
LTYPE
5
5
100
AcDbSymbolTable
0
LTYPE
5
14
100
AcDbSymbolTableRecord
100
AcDbLinetypeTableRecord
2
BYBLOCK
70
0
0
LTYPE
5
15
100
AcDbSymbolTableRecord
100
AcDbLinetypeTableRecord
2
BYLAYER
70
0
0
ENDTAB
0
TABLE
2
LAYER
5
2
100
AcDbSymbolTable
70
2
0
LAYER
5
50
100
AcDbSymbolTableRecord
100
AcDbLayerTableRecord
2
0
70
0
6
CONTINUOUS
0
ENDTAB
0
TABLE
2
STYLE
5
3
100
AcDbSymbolTable
70
1
0
STYLE
5
11
100
AcDbSymbolTableRecord
100
AcDbTextStyleTableRecord
2
STANDARD
70
0
0
ENDTAB
0
TABLE
2
VIEW
5
6
100
AcDbSymbolTable
70
0
0
ENDTAB
0
TABLE
2
UCS
5
7
100
AcDbSymbolTable
70
0
0
ENDTAB
0
TABLE
2
APPID
5
9
100
AcDbSymbolTable
70
2
0
APPID
5
12
100
AcDbSymbolTableRecord
100
AcDbRegAppTableRecord
2
ACAD
70
0
0
ENDTAB
0
TABLE
2
DIMSTYLE
5
A
100
AcDbSymbolTable
70
1
0
ENDTAB
0
TABLE
2
BLOCK_RECORD
5
1
100
AcDbSymbolTable
70
1
0
BLOCK_RECORD
5
1F
100
AcDbSymbolTableRecord
100
AcDbBlockTableRecord
2
*MODEL_SPACE
0
BLOCK_RECORD
5
1B
100
AcDbSymbolTableRecord
100
AcDbBlockTableRecord
2
*PAPER_SPACE
0
ENDTAB
0
ENDSEC
0
SECTION
2
BLOCKS
0
BLOCK
5
20
100
AcDbEntity
100
AcDbBlockBegin
2
*MODEL_SPACE
0
ENDBLK
5
21
100
AcDbEntity
100
AcDbBlockEnd
0
BLOCK
5
1C
100
AcDbEntity
100
AcDbBlockBegin
2
*PAPER_SPACE
0
ENDBLK
5
1D
100
AcDbEntity
100
AcDbBlockEnd
0
ENDSEC
0
SECTION
2
ENTITIES
0
LWPOLYLINE
5
100
100
AcDbEntity
8
0
100
AcDbPolyline
90
6
70
1
43
0.0
10
-50
20
-50
10
-50
20
-97.919996298234295
10
-82.437635299211266
20
-97.919996298234295
10
-66.21881764960564
20
-92.820289273652463
10
-70.474551734611154
20
-79.285595073140868
10
-57.604279353421468
20
-86.052942173396673
0
LWPOLYLINE
5
101
100
AcDbEntity
8
0
100
AcDbPolyline
90
4
70
1
43
0.0
10
-66.819980182005224
20
-83.408850438062316
10
-64.000000953674316
20
-93.000001385807991
10
-55.051495594041242
20
-96.006141073383944
10
-57.345346959795322
20
-88.204425911935147
0
LWPOLYLINE
5
102
100
AcDbEntity
8
0
100
AcDbPolyline
90
3
70
1
43
0.0
10
-65.689698009261605
20
-94.503071229595975
10
-60.71834900383385
20
-96.173134435170269
10
-70.000001043081284
20
-96.173134435170269
0
LWPOLYLINE
5
103
100
AcDbEntity
8
0
100
AcDbPolyline
90
3
70
1
43
0.0
10
-54.676696607911694
20
-86.820148746281589
10
-52.64427483424322
20
-93.716923993540433
10
-52.64427483424322
20
-78.226807447517572
0
LWPOLYLINE
5
104
100
AcDbEntity
8
0
100
AcDbPolyline
90
3
70
1
43
0.0
10
-42.389154362351178
20
-93.716923993540433
10
-42.389154362351178
20
-78.226807447517572
10
-40.356732588682711
20
-86.820148746281589
0
LWPOLYLINE
5
105
100
AcDbEntity
8
0
100
AcDbPolyline
90
4
70
1
43
0.0
10
-37.688082236799083
20
-88.204425911935147
10
-28.21344901458918
20
-83.408850438062316
10
-31.033428242920085
20
-93.000001385807991
10
-39.981933602553156
20
-96.006141073383944
0
LWPOLYLINE
5
106
100
AcDbEntity
8
0
100
AcDbPolyline
90
6
70
1
43
0.0
10
-12.595793897383132
20
-97.919996298234295
10
-28.814611546988765
20
-92.820289273652463
10
-24.558877461983244
20
-79.285595073140868
10
-37.429149843172937
20
-86.052942173396673
10
-45.033429196594398
20
-50
10
-45.033429196594398
20
-97.919996298234295
0
LWPOLYLINE
5
107
100
AcDbEntity
8
0
100
AcDbPolyline
90
3
70
1
43
0.0
10
-29.343731187332793
20
-94.503071229595975
10
-34.315080192760554
20
-96.173134435170269
10
-25.033428153513118
20
-96.173134435170269
0
LWPOLYLINE
5
108
100
AcDbEntity
8
0
100
AcDbPolyline
90
3
70
1
43
0.0
10
-60.71834900383385
20
-108.15142016207986
10
-70.000001043081284
20
-108.15142016207986
10
-65.689698009261605
20
-109.82148336765417
0
LWPOLYLINE
5
109
100
AcDbEntity
8
0
100
AcDbPolyline
90
4
70
1
43
0.0
10
-57.345346959795322
20
-116.12012868531497
10
-66.819980182005224
20
-120.91570415918781
10
-64.000000953674316
20
-111.32455321144214
10
-55.051495594041242
20
-108.31841352386618
0
LWPOLYLINE
5
110
100
AcDbEntity
8
0
100
AcDbPolyline
90
6
70
1
43
0.0
10
-50
20
-154.32455459725014
10
-50
20
-106.40455829901583
10
-82.437635299211266
20
-106.40455829901583
10
-66.21881764960564
20
-111.50426532359766
10
-70.474551734611154
20
-125.03895952410926
10
-57.604279353421468
20
-118.27161242385345
0
LWPOLYLINE
5
111
100
AcDbEntity
8
0
100
AcDbPolyline
90
3
70
1
43
0.0
10
-40.356732588682711
20
-117.50440585096854
10
-42.389154362351178
20
-110.60763060370971
10
-42.389154362351178
20
-126.09774714973256
0
LWPOLYLINE
5
112
100
AcDbEntity
8
0
100
AcDbPolyline
90
3
70
1
43
0.0
10
-54.676696607911694
20
-117.50440585096854
10
-52.64427483424322
20
-110.60763060370971
10
-52.64427483424322
20
-126.09774714973256
0
LWPOLYLINE
5
113
100
AcDbEntity
8
0
100
AcDbPolyline
90
6
70
1
43
0.0
10
-12.595793897383132
20
-106.40455829901583
10
-28.814611546988765
20
-111.50426532359766
10
-24.558877461983244
20
-125.03895952410926
10
-37.429149843172937
20
-118.27161242385345
10
-45.033429196594398
20
-154.32455459725014
10
-45.033429196594398
20
-106.40455829901583
0
LWPOLYLINE
5
114
100
AcDbEntity
8
0
100
AcDbPolyline
90
4
70
1
43
0.0
10
-37.688082236799083
20
-116.12012868531497
10
-28.21344901458918
20
-120.91570415918781
10
-31.033428242920085
20
-111.32455321144214
10
-39.981933602553156
20
-108.31841352386618
0
LWPOLYLINE
5
115
100
AcDbEntity
8
0
100
AcDbPolyline
90
3
70
1
43
0.0
10
-34.315080192760554
20
-108.15142016207986
10
-25.033428153513118
20
-108.15142016207986
10
-29.343731187332793
20
-109.82148336765417
0
LWPOLYLINE
5
116
100
AcDbEntity
8
0
100
AcDbPolyline
90
3
70
1
43
0.0
10
13.00971009413562
20
-108.15142016207986
10
17.320013127955292
20
-109.82148336765417
10
22.291362133383057
20
-108.15142016207986
0
LWPOLYLINE
5
117
100
AcDbEntity
8
0
100
AcDbPolyline
90
3
70
1
43
0.0
10
13.00971009413562
20
-96.173134435170269
10
17.320013127955292
20
-94.503071229595975
10
22.291362133383057
20
-96.173134435170269
0
LWPOLYLINE
5
118
100
AcDbEntity
8
0
100
AcDbPolyline
90
6
70
1
43
0.0
10
25.405431783795436
20
-86.052942173396673
10
33.009711137216904
20
-50
10
33.009711137216904
20
-97.919996298234295
10
0.57207583800563455
20
-97.919996298234295
10
16.790893487611271
20
-92.820289273652463
10
12.535159402605744
20
-79.285595073140868
0
LWPOLYLINE
5
119
100
AcDbEntity
8
0
100
AcDbPolyline
90
3
70
1
43
0.0
10
42.652978548534193
20
-86.820148746281589
10
40.620556774865726
20
-93.716923993540433
10
40.620556774865726
20
-78.226807447517572
0
LWPOLYLINE
5
120
100
AcDbEntity
8
0
100
AcDbPolyline
90
3
70
1
43
0.0
10
48.69463094445635
20
-108.15142016207986
10
57.976282983703783
20
-108.15142016207986
10
53.665979949884111
20
-109.82148336765417
0
LWPOLYLINE
5
121
100
AcDbEntity
8
0
100
AcDbPolyline
90
3
70
1
43
0.0
10
28.33301452930521
20
-86.820148746281589
10
30.365436302973681
20
-93.716923993540433
10
30.365436302973681
20
-78.226807447517572
0
LWPOLYLINE
5
122
100
AcDbEntity
8
0
100
AcDbPolyline
90
6
70
1
43
0.0
10
58.45083367523366
20
-79.285595073140868
10
45.580561294043974
20
-86.052942173396673
10
37.976281940622499
20
-50
10
37.976281940622499
20
-97.919996298234295
10
70.413917239833779
20
-97.919996298234295
10
54.195099590228139
20
-92.820289273652463
0
LWPOLYLINE
5
123
100
AcDbEntity
8
0
100
AcDbPolyline
90
4
70
1
43
0.0
10
19.009710183542587
20
-93.000001385807991
10
27.958215543175662
20
-96.006141073383944
10
25.664364177421586
20
-88.204425911935147
10
16.189730955211683
20
-83.408850438062316
0
LWPOLYLINE
5
124
100
AcDbEntity
8
0
100
AcDbPolyline
90
4
70
1
43
0.0
10
51.976282894296816
20
-111.32455321144214
10
43.027777534663741
20
-108.31841352386618
10
45.321628900417821
20
-116.12012868531497
10
54.796262122627724
20
-120.91570415918781
0
LWPOLYLINE
5
125
100
AcDbEntity
8
0
100
AcDbPolyline
90
3
70
1
43
0.0
10
28.33301452930521
20
-117.50440585096854
10
30.365436302973681
20
-110.60763060370971
10
30.365436302973681
20
-126.09774714973256
0
LWPOLYLINE
5
126
100
AcDbEntity
8
0
100
AcDbPolyline
90
3
70
1
43
0.0
10
53.665979949884111
20
-94.503071229595975
10
48.69463094445635
20
-96.173134435170269
10
57.976282983703783
20
-96.173134435170269
0
LWPOLYLINE
5
127
100
AcDbEntity
8
0
100
AcDbPolyline
90
4
70
1
43
0.0
10
45.321628900417821
20
-88.204425911935147
10
54.796262122627724
20
-83.408850438062316
10
51.976282894296816
20
-93.000001385807991
10
43.027777534663741
20
-96.006141073383944
0
LWPOLYLINE
5
128
100
AcDbEntity
8
0
100
AcDbPolyline
90
6
70
1
43
0.0
10
45.580561294043974
20
-118.27161242385345
10
37.976281940622499
20
-154.32455459725014
10
37.976281940622499
20
-106.40455829901583
10
70.413917239833779
20
-106.40455829901583
10
54.195099590228139
20
-111.50426532359766
10
58.45083367523366
20
-125.03895952410926
0
LWPOLYLINE
5
129
100
AcDbEntity
8
0
100
AcDbPolyline
90
4
70
1
43
0.0
10
19.009710183542587
20
-111.32455321144214
10
27.958215543175662
20
-108.31841352386618
10
25.664364177421586
20
-116.12012868531497
10
16.189730955211683
20
-120.91570415918781
0
LWPOLYLINE
5
130
100
AcDbEntity
8
0
100
AcDbPolyline
90
6
70
1
43
0.0
10
16.790893487611271
20
-111.50426532359766
10
12.535159402605744
20
-125.03895952410926
10
25.405431783795436
20
-118.27161242385345
10
33.009711137216904
20
-154.32455459725014
10
33.009711137216904
20
-106.40455829901583
10
0.57207583800563455
20
-106.40455829901583
0
LWPOLYLINE
5
131
100
AcDbEntity
8
0
100
AcDbPolyline
90
3
70
1
43
0.0
10
40.620556774865726
20
-110.60763060370971
10
40.620556774865726
20
-126.09774714973256
10
42.652978548534193
20
-117.50440585096854
0
LWPOLYLINE
5
132
100
AcDbEntity
8
0
100
AcDbPolyline
90
6
70
1
43
0.0
10
90.730310580854749
20
-79.285595073140684
10
104.00000154972078
20
-85.000001266598687
10
111.00000165402892
20
-70.000001043081298
10
111.20486231546586
20
-97.919996298234068
10
82.000001221895218
20
-98.000001460313797
10
96.000001430511475
20
-92.00000137090683
0
LWPOLYLINE
5
133
100
AcDbEntity
8
0
100
AcDbPolyline
90
4
70
1
43
0.0
10
99.000001475214958
20
-92.00000137090683
10
107.50000160187483
20
-95.000001415610313
10
105.00000156462198
20
-88.000001311302128
10
94.384882133460678
20
-83.408850438062117
0
LWPOLYLINE
5
134
100
AcDbEntity
8
0
100
AcDbPolyline
90
3
70
1
43
0.0
10
109.00000162422657
20
-93.000001385807991
10
109.00000162422657
20
-81.000001206994057
10
107.00000159442425
20
-87.000001296401024
0
LWPOLYLINE
5
135
100
AcDbEntity
8
0
100
AcDbPolyline
90
3
70
1
43
0.0
10
91.204861272384633
20
-96.173134435170041
10
98.000001460313797
20
-94.000001400709152
10
104.00000154972076
20
-96.000001430511475
0
LWPOLYLINE
5
136
100
AcDbEntity
8
0
100
AcDbPolyline
90
4
70
1
43
0.0
10
135.00000201165676
20
-92.00000137090683
10
126.50000188499689
20
-95.000001415610313
10
129.00000192224974
20
-88.000001311302128
10
139.61512135341104
20
-83.408850438062117
0
LWPOLYLINE
5
137
100
AcDbEntity
8
0
100
AcDbPolyline
90
3
70
1
43
0.0
10
125.00000186264515
20
-93.000001385807991
10
125.00000186264515
20
-81.000001206994057
10
127.00000189244747
20
-87.000001296401024
0
LWPOLYLINE
5
138
100
AcDbEntity
8
0
100
AcDbPolyline
90
6
70
1
43
0.0
10
130.00000193715093
20
-85.000001266598687
10
123.0000018328428
20
-70.000001043081298
10
122.79514117140586
20
-97.919996298234068
10
152.0000022649765
20
-98.000001460313797
10
138.00000205636024
20
-92.00000137090683
10
143.26969290601699
20
-79.285595073140684
0
LWPOLYLINE
5
139
100
AcDbEntity
8
0
100
AcDbPolyline
90
3
70
1
43
0.0
10
136.00000202655792
20
-94.000001400709152
10
130.00000193715096
20
-96.000001430511475
10
142.7951422144871
20
-96.173134435170041
0
LWPOLYLINE
5
140
100
AcDbEntity
8
0
100
AcDbPolyline
90
6
70
1
43
0.0
10
82.000001221895218
20
-110.00000163912773
10
96.000001430511475
20
-116.0000017285347
10
90.730310580854749
20
-128.71440802630084
10
104.00000154972078
20
-123.00000183284284
10
111.00000165402892
20
-138.00000205636022
10
111.20486231546586
20
-110.08000680120746
0
LWPOLYLINE
5
141
100
AcDbEntity
8
0
100
AcDbPolyline
90
4
70
1
43
0.0
10
129.00000192224974
20
-120.0000017881394
10
139.61512135341104
20
-124.59115266137941
10
135.00000201165676
20
-116.0000017285347
10
126.50000188499689
20
-113.00000168383121
0
LWPOLYLINE
5
142
100
AcDbEntity
8
0
100
AcDbPolyline
90
3
70
1
43
0.0
10
125.00000186264515
20
-127.00000189244747
10
127.00000189244747
20
-121.0000018030405
10
125.00000186264515
20
-115.00000171363354
0
LWPOLYLINE
5
143
100
AcDbEntity
8
0
100
AcDbPolyline
90
3
70
1
43
0.0
10
130.00000193715096
20
-112.00000166893005
10
142.7951422144871
20
-111.82686866427149
10
136.00000202655792
20
-114.00000169873238
0
LWPOLYLINE
5
144
100
AcDbEntity
8
0
100
AcDbPolyline
90
6
70
1
43
0.0
10
123.0000018328428
20
-138.00000205636022
10
122.79514117140586
20
-110.08000680120746
10
152.0000022649765
20
-110.00000163912773
10
138.00000205636024
20
-116.0000017285347
10
143.26969290601699
20
-128.71440802630084
10
130.00000193715093
20
-123.00000183284284
0
LWPOLYLINE
5
145
100
AcDbEntity
8
0
100
AcDbPolyline
90
3
70
1
43
0.0
10
104.00000154972076
20
-112.00000166893005
10
91.204861272384633
20
-111.82686866427149
10
98.000001460313797
20
-114.00000169873238
0
LWPOLYLINE
5
146
100
AcDbEntity
8
0
100
AcDbPolyline
90
3
70
1
43
0.0
10
109.00000162422657
20
-115.00000171363354
10
109.00000162422657
20
-127.00000189244747
10
107.00000159442425
20
-121.0000018030405
0
LWPOLYLINE
5
147
100
AcDbEntity
8
0
100
AcDbPolyline
90
4
70
1
43
0.0
10
105.00000156462198
20
-120.0000017881394
10
94.384882133460678
20
-124.59115266137941
10
99.000001475214958
20
-116.0000017285347
10
107.50000160187483
20
-113.00000168383121
0
ENDSEC
0
SECTION
2
OBJECTS
0
DICTIONARY
5
C
100
AcDbDictionary
3
ACAD_GROUP
350
D
3
ACAD_MLINESTYLE
350
17
0
DICTIONARY
5
D
100
AcDbDictionary
0
DICTIONARY
5
1A
330
C
100
AcDbDictionary
0
DICTIONARY
5
17
100
AcDbDictionary
0
ENDSEC
0
EOF
